<?xml version="1.0" encoding="utf-8" standalone="no"?>
<!DOCTYPE svg PUBLIC "-//W3C//DTD SVG 1.1//EN"
  "http://www.w3.org/Graphics/SVG/1.1/DTD/svg11.dtd">
<!-- Created with matplotlib (http://matplotlib.org/) -->
<svg height="345pt" version="1.1" viewBox="0 0 358 345" width="358pt" xmlns="http://www.w3.org/2000/svg" xmlns:xlink="http://www.w3.org/1999/xlink">
 <defs>
  <style type="text/css">
*{stroke-linecap:butt;stroke-linejoin:round;}
  </style>
 </defs>
 <g id="figure_1">
  <g id="patch_1">
   <path d="M 0 345 
L 358 345 
L 358 0 
L 0 0 
z
" style="fill:#ffffff;"/>
  </g>
  <g id="axes_1">
   <g id="patch_2">
    <path d="M 50.565625 303.84375 
L 295.876562 303.84375 
L 295.876562 14.3 
L 50.565625 14.3 
z
" style="fill:#ffffff;"/>
   </g>
   <g id="matplotlib.axis_1">
    <g id="xtick_1">
     <g id="line2d_1">
      <defs>
       <path d="M 0 0 
L 0 3.5 
" id="m73f3c7494f" style="stroke:#000000;stroke-width:0.8;"/>
      </defs>
      <g>
       <use style="stroke:#000000;stroke-width:0.8;" x="68.63712" xlink:href="#m73f3c7494f" y="303.84375"/>
      </g>
     </g>
     <g id="text_1">
      <!-- 1960 -->
      <defs>
       <path d="M 12.40625 8.296875 
L 28.515625 8.296875 
L 28.515625 63.921875 
L 10.984375 60.40625 
L 10.984375 69.390625 
L 28.421875 72.90625 
L 38.28125 72.90625 
L 38.28125 8.296875 
L 54.390625 8.296875 
L 54.390625 0 
L 12.40625 0 
z
" id="DejaVuSans-31"/>
       <path d="M 10.984375 1.515625 
L 10.984375 10.5 
Q 14.703125 8.734375 18.5 7.8125 
Q 22.3125 6.890625 25.984375 6.890625 
Q 35.75 6.890625 40.890625 13.453125 
Q 46.046875 20.015625 46.78125 33.40625 
Q 43.953125 29.203125 39.59375 26.953125 
Q 35.25 24.703125 29.984375 24.703125 
Q 19.046875 24.703125 12.671875 31.3125 
Q 6.296875 37.9375 6.296875 49.421875 
Q 6.296875 60.640625 12.9375 67.421875 
Q 19.578125 74.21875 30.609375 74.21875 
Q 43.265625 74.21875 49.921875 64.515625 
Q 56.59375 54.828125 56.59375 36.375 
Q 56.59375 19.140625 48.40625 8.859375 
Q 40.234375 -1.421875 26.421875 -1.421875 
Q 22.703125 -1.421875 18.890625 -0.6875 
Q 15.09375 0.046875 10.984375 1.515625 
z
M 30.609375 32.421875 
Q 37.25 32.421875 41.125 36.953125 
Q 45.015625 41.5 45.015625 49.421875 
Q 45.015625 57.28125 41.125 61.84375 
Q 37.25 66.40625 30.609375 66.40625 
Q 23.96875 66.40625 20.09375 61.84375 
Q 16.21875 57.28125 16.21875 49.421875 
Q 16.21875 41.5 20.09375 36.953125 
Q 23.96875 32.421875 30.609375 32.421875 
z
" id="DejaVuSans-39"/>
       <path d="M 33.015625 40.375 
Q 26.375 40.375 22.484375 35.828125 
Q 18.609375 31.296875 18.609375 23.390625 
Q 18.609375 15.53125 22.484375 10.953125 
Q 26.375 6.390625 33.015625 6.390625 
Q 39.65625 6.390625 43.53125 10.953125 
Q 47.40625 15.53125 47.40625 23.390625 
Q 47.40625 31.296875 43.53125 35.828125 
Q 39.65625 40.375 33.015625 40.375 
z
M 52.59375 71.296875 
L 52.59375 62.3125 
Q 48.875 64.0625 45.09375 64.984375 
Q 41.3125 65.921875 37.59375 65.921875 
Q 27.828125 65.921875 22.671875 59.328125 
Q 17.53125 52.734375 16.796875 39.40625 
Q 19.671875 43.65625 24.015625 45.921875 
Q 28.375 48.1875 33.59375 48.1875 
Q 44.578125 48.1875 50.953125 41.515625 
Q 57.328125 34.859375 57.328125 23.390625 
Q 57.328125 12.15625 50.6875 5.359375 
Q 44.046875 -1.421875 33.015625 -1.421875 
Q 20.359375 -1.421875 13.671875 8.265625 
Q 6.984375 17.96875 6.984375 36.375 
Q 6.984375 53.65625 15.1875 63.9375 
Q 23.390625 74.21875 37.203125 74.21875 
Q 40.921875 74.21875 44.703125 73.484375 
Q 48.484375 72.75 52.59375 71.296875 
z
" id="DejaVuSans-36"/>
       <path d="M 31.78125 66.40625 
Q 24.171875 66.40625 20.328125 58.90625 
Q 16.5 51.421875 16.5 36.375 
Q 16.5 21.390625 20.328125 13.890625 
Q 24.171875 6.390625 31.78125 6.390625 
Q 39.453125 6.390625 43.28125 13.890625 
Q 47.125 21.390625 47.125 36.375 
Q 47.125 51.421875 43.28125 58.90625 
Q 39.453125 66.40625 31.78125 66.40625 
z
M 31.78125 74.21875 
Q 44.046875 74.21875 50.515625 64.515625 
Q 56.984375 54.828125 56.984375 36.375 
Q 56.984375 17.96875 50.515625 8.265625 
Q 44.046875 -1.421875 31.78125 -1.421875 
Q 19.53125 -1.421875 13.0625 8.265625 
Q 6.59375 17.96875 6.59375 36.375 
Q 6.59375 54.828125 13.0625 64.515625 
Q 19.53125 74.21875 31.78125 74.21875 
z
" id="DejaVuSans-30"/>
      </defs>
      <g transform="translate(55.91212 318.442187)scale(0.1 -0.1)">
       <use xlink:href="#DejaVuSans-31"/>
       <use x="63.623047" xlink:href="#DejaVuSans-39"/>
       <use x="127.246094" xlink:href="#DejaVuSans-36"/>
       <use x="190.869141" xlink:href="#DejaVuSans-30"/>
      </g>
     </g>
    </g>
    <g id="xtick_2">
     <g id="line2d_2">
      <g>
       <use style="stroke:#000000;stroke-width:0.8;" x="106.598692" xlink:href="#m73f3c7494f" y="303.84375"/>
      </g>
     </g>
     <g id="text_2">
      <!-- 1970 -->
      <defs>
       <path d="M 8.203125 72.90625 
L 55.078125 72.90625 
L 55.078125 68.703125 
L 28.609375 0 
L 18.3125 0 
L 43.21875 64.59375 
L 8.203125 64.59375 
z
" id="DejaVuSans-37"/>
      </defs>
      <g transform="translate(93.873692 318.442187)scale(0.1 -0.1)">
       <use xlink:href="#DejaVuSans-31"/>
       <use x="63.623047" xlink:href="#DejaVuSans-39"/>
       <use x="127.246094" xlink:href="#DejaVuSans-37"/>
       <use x="190.869141" xlink:href="#DejaVuSans-30"/>
      </g>
     </g>
    </g>
    <g id="xtick_3">
     <g id="line2d_3">
      <g>
       <use style="stroke:#000000;stroke-width:0.8;" x="144.549871" xlink:href="#m73f3c7494f" y="303.84375"/>
      </g>
     </g>
     <g id="text_3">
      <!-- 1980 -->
      <defs>
       <path d="M 31.78125 34.625 
Q 24.75 34.625 20.71875 30.859375 
Q 16.703125 27.09375 16.703125 20.515625 
Q 16.703125 13.921875 20.71875 10.15625 
Q 24.75 6.390625 31.78125 6.390625 
Q 38.8125 6.390625 42.859375 10.171875 
Q 46.921875 13.96875 46.921875 20.515625 
Q 46.921875 27.09375 42.890625 30.859375 
Q 38.875 34.625 31.78125 34.625 
z
M 21.921875 38.8125 
Q 15.578125 40.375 12.03125 44.71875 
Q 8.5 49.078125 8.5 55.328125 
Q 8.5 64.0625 14.71875 69.140625 
Q 20.953125 74.21875 31.78125 74.21875 
Q 42.671875 74.21875 48.875 69.140625 
Q 55.078125 64.0625 55.078125 55.328125 
Q 55.078125 49.078125 51.53125 44.71875 
Q 48 40.375 41.703125 38.8125 
Q 48.828125 37.15625 52.796875 32.3125 
Q 56.78125 27.484375 56.78125 20.515625 
Q 56.78125 9.90625 50.3125 4.234375 
Q 43.84375 -1.421875 31.78125 -1.421875 
Q 19.734375 -1.421875 13.25 4.234375 
Q 6.78125 9.90625 6.78125 20.515625 
Q 6.78125 27.484375 10.78125 32.3125 
Q 14.796875 37.15625 21.921875 38.8125 
z
M 18.3125 54.390625 
Q 18.3125 48.734375 21.84375 45.5625 
Q 25.390625 42.390625 31.78125 42.390625 
Q 38.140625 42.390625 41.71875 45.5625 
Q 45.3125 48.734375 45.3125 54.390625 
Q 45.3125 60.0625 41.71875 63.234375 
Q 38.140625 66.40625 31.78125 66.40625 
Q 25.390625 66.40625 21.84375 63.234375 
Q 18.3125 60.0625 18.3125 54.390625 
z
" id="DejaVuSans-38"/>
      </defs>
      <g transform="translate(131.824871 318.442187)scale(0.1 -0.1)">
       <use xlink:href="#DejaVuSans-31"/>
       <use x="63.623047" xlink:href="#DejaVuSans-39"/>
       <use x="127.246094" xlink:href="#DejaVuSans-38"/>
       <use x="190.869141" xlink:href="#DejaVuSans-30"/>
      </g>
     </g>
    </g>
    <g id="xtick_4">
     <g id="line2d_4">
      <g>
       <use style="stroke:#000000;stroke-width:0.8;" x="182.511443" xlink:href="#m73f3c7494f" y="303.84375"/>
      </g>
     </g>
     <g id="text_4">
      <!-- 1990 -->
      <g transform="translate(169.786443 318.442187)scale(0.1 -0.1)">
       <use xlink:href="#DejaVuSans-31"/>
       <use x="63.623047" xlink:href="#DejaVuSans-39"/>
       <use x="127.246094" xlink:href="#DejaVuSans-39"/>
       <use x="190.869141" xlink:href="#DejaVuSans-30"/>
      </g>
     </g>
    </g>
    <g id="xtick_5">
     <g id="line2d_5">
      <g>
       <use style="stroke:#000000;stroke-width:0.8;" x="220.462622" xlink:href="#m73f3c7494f" y="303.84375"/>
      </g>
     </g>
     <g id="text_5">
      <!-- 2000 -->
      <defs>
       <path d="M 19.1875 8.296875 
L 53.609375 8.296875 
L 53.609375 0 
L 7.328125 0 
L 7.328125 8.296875 
Q 12.9375 14.109375 22.625 23.890625 
Q 32.328125 33.6875 34.8125 36.53125 
Q 39.546875 41.84375 41.421875 45.53125 
Q 43.3125 49.21875 43.3125 52.78125 
Q 43.3125 58.59375 39.234375 62.25 
Q 35.15625 65.921875 28.609375 65.921875 
Q 23.96875 65.921875 18.8125 64.3125 
Q 13.671875 62.703125 7.8125 59.421875 
L 7.8125 69.390625 
Q 13.765625 71.78125 18.9375 73 
Q 24.125 74.21875 28.421875 74.21875 
Q 39.75 74.21875 46.484375 68.546875 
Q 53.21875 62.890625 53.21875 53.421875 
Q 53.21875 48.921875 51.53125 44.890625 
Q 49.859375 40.875 45.40625 35.40625 
Q 44.1875 33.984375 37.640625 27.21875 
Q 31.109375 20.453125 19.1875 8.296875 
z
" id="DejaVuSans-32"/>
      </defs>
      <g transform="translate(207.737622 318.442187)scale(0.1 -0.1)">
       <use xlink:href="#DejaVuSans-32"/>
       <use x="63.623047" xlink:href="#DejaVuSans-30"/>
       <use x="127.246094" xlink:href="#DejaVuSans-30"/>
       <use x="190.869141" xlink:href="#DejaVuSans-30"/>
      </g>
     </g>
    </g>
    <g id="xtick_6">
     <g id="line2d_6">
      <g>
       <use style="stroke:#000000;stroke-width:0.8;" x="258.424194" xlink:href="#m73f3c7494f" y="303.84375"/>
      </g>
     </g>
     <g id="text_6">
      <!-- 2010 -->
      <g transform="translate(245.699194 318.442187)scale(0.1 -0.1)">
       <use xlink:href="#DejaVuSans-32"/>
       <use x="63.623047" xlink:href="#DejaVuSans-30"/>
       <use x="127.246094" xlink:href="#DejaVuSans-31"/>
       <use x="190.869141" xlink:href="#DejaVuSans-30"/>
      </g>
     </g>
    </g>
    <g id="text_7">
     <!-- Time (years) -->
     <defs>
      <path d="M -0.296875 72.90625 
L 61.375 72.90625 
L 61.375 64.59375 
L 35.5 64.59375 
L 35.5 0 
L 25.59375 0 
L 25.59375 64.59375 
L -0.296875 64.59375 
z
" id="DejaVuSans-54"/>
      <path d="M 9.421875 54.6875 
L 18.40625 54.6875 
L 18.40625 0 
L 9.421875 0 
z
M 9.421875 75.984375 
L 18.40625 75.984375 
L 18.40625 64.59375 
L 9.421875 64.59375 
z
" id="DejaVuSans-69"/>
      <path d="M 52 44.1875 
Q 55.375 50.25 60.0625 53.125 
Q 64.75 56 71.09375 56 
Q 79.640625 56 84.28125 50.015625 
Q 88.921875 44.046875 88.921875 33.015625 
L 88.921875 0 
L 79.890625 0 
L 79.890625 32.71875 
Q 79.890625 40.578125 77.09375 44.375 
Q 74.3125 48.1875 68.609375 48.1875 
Q 61.625 48.1875 57.5625 43.546875 
Q 53.515625 38.921875 53.515625 30.90625 
L 53.515625 0 
L 44.484375 0 
L 44.484375 32.71875 
Q 44.484375 40.625 41.703125 44.40625 
Q 38.921875 48.1875 33.109375 48.1875 
Q 26.21875 48.1875 22.15625 43.53125 
Q 18.109375 38.875 18.109375 30.90625 
L 18.109375 0 
L 9.078125 0 
L 9.078125 54.6875 
L 18.109375 54.6875 
L 18.109375 46.1875 
Q 21.1875 51.21875 25.484375 53.609375 
Q 29.78125 56 35.6875 56 
Q 41.65625 56 45.828125 52.96875 
Q 50 49.953125 52 44.1875 
z
" id="DejaVuSans-6d"/>
      <path d="M 56.203125 29.59375 
L 56.203125 25.203125 
L 14.890625 25.203125 
Q 15.484375 15.921875 20.484375 11.0625 
Q 25.484375 6.203125 34.421875 6.203125 
Q 39.59375 6.203125 44.453125 7.46875 
Q 49.3125 8.734375 54.109375 11.28125 
L 54.109375 2.78125 
Q 49.265625 0.734375 44.1875 -0.34375 
Q 39.109375 -1.421875 33.890625 -1.421875 
Q 20.796875 -1.421875 13.15625 6.1875 
Q 5.515625 13.8125 5.515625 26.8125 
Q 5.515625 40.234375 12.765625 48.109375 
Q 20.015625 56 32.328125 56 
Q 43.359375 56 49.78125 48.890625 
Q 56.203125 41.796875 56.203125 29.59375 
z
M 47.21875 32.234375 
Q 47.125 39.59375 43.09375 43.984375 
Q 39.0625 48.390625 32.421875 48.390625 
Q 24.90625 48.390625 20.390625 44.140625 
Q 15.875 39.890625 15.1875 32.171875 
z
" id="DejaVuSans-65"/>
      <path id="DejaVuSans-20"/>
      <path d="M 31 75.875 
Q 24.46875 64.65625 21.28125 53.65625 
Q 18.109375 42.671875 18.109375 31.390625 
Q 18.109375 20.125 21.3125 9.0625 
Q 24.515625 -2 31 -13.1875 
L 23.1875 -13.1875 
Q 15.875 -1.703125 12.234375 9.375 
Q 8.59375 20.453125 8.59375 31.390625 
Q 8.59375 42.28125 12.203125 53.3125 
Q 15.828125 64.359375 23.1875 75.875 
z
" id="DejaVuSans-28"/>
      <path d="M 32.171875 -5.078125 
Q 28.375 -14.84375 24.75 -17.8125 
Q 21.140625 -20.796875 15.09375 -20.796875 
L 7.90625 -20.796875 
L 7.90625 -13.28125 
L 13.1875 -13.28125 
Q 16.890625 -13.28125 18.9375 -11.515625 
Q 21 -9.765625 23.484375 -3.21875 
L 25.09375 0.875 
L 2.984375 54.6875 
L 12.5 54.6875 
L 29.59375 11.921875 
L 46.6875 54.6875 
L 56.203125 54.6875 
z
" id="DejaVuSans-79"/>
      <path d="M 34.28125 27.484375 
Q 23.390625 27.484375 19.1875 25 
Q 14.984375 22.515625 14.984375 16.5 
Q 14.984375 11.71875 18.140625 8.90625 
Q 21.296875 6.109375 26.703125 6.109375 
Q 34.1875 6.109375 38.703125 11.40625 
Q 43.21875 16.703125 43.21875 25.484375 
L 43.21875 27.484375 
z
M 52.203125 31.203125 
L 52.203125 0 
L 43.21875 0 
L 43.21875 8.296875 
Q 40.140625 3.328125 35.546875 0.953125 
Q 30.953125 -1.421875 24.3125 -1.421875 
Q 15.921875 -1.421875 10.953125 3.296875 
Q 6 8.015625 6 15.921875 
Q 6 25.140625 12.171875 29.828125 
Q 18.359375 34.515625 30.609375 34.515625 
L 43.21875 34.515625 
L 43.21875 35.40625 
Q 43.21875 41.609375 39.140625 45 
Q 35.0625 48.390625 27.6875 48.390625 
Q 23 48.390625 18.546875 47.265625 
Q 14.109375 46.140625 10.015625 43.890625 
L 10.015625 52.203125 
Q 14.9375 54.109375 19.578125 55.046875 
Q 24.21875 56 28.609375 56 
Q 40.484375 56 46.34375 49.84375 
Q 52.203125 43.703125 52.203125 31.203125 
z
" id="DejaVuSans-61"/>
      <path d="M 41.109375 46.296875 
Q 39.59375 47.171875 37.8125 47.578125 
Q 36.03125 48 33.890625 48 
Q 26.265625 48 22.1875 43.046875 
Q 18.109375 38.09375 18.109375 28.8125 
L 18.109375 0 
L 9.078125 0 
L 9.078125 54.6875 
L 18.109375 54.6875 
L 18.109375 46.1875 
Q 20.953125 51.171875 25.484375 53.578125 
Q 30.03125 56 36.53125 56 
Q 37.453125 56 38.578125 55.875 
Q 39.703125 55.765625 41.0625 55.515625 
z
" id="DejaVuSans-72"/>
      <path d="M 44.28125 53.078125 
L 44.28125 44.578125 
Q 40.484375 46.53125 36.375 47.5 
Q 32.28125 48.484375 27.875 48.484375 
Q 21.1875 48.484375 17.84375 46.4375 
Q 14.5 44.390625 14.5 40.28125 
Q 14.5 37.15625 16.890625 35.375 
Q 19.28125 33.59375 26.515625 31.984375 
L 29.59375 31.296875 
Q 39.15625 29.25 43.1875 25.515625 
Q 47.21875 21.78125 47.21875 15.09375 
Q 47.21875 7.46875 41.1875 3.015625 
Q 35.15625 -1.421875 24.609375 -1.421875 
Q 20.21875 -1.421875 15.453125 -0.5625 
Q 10.6875 0.296875 5.421875 2 
L 5.421875 11.28125 
Q 10.40625 8.6875 15.234375 7.390625 
Q 20.0625 6.109375 24.8125 6.109375 
Q 31.15625 6.109375 34.5625 8.28125 
Q 37.984375 10.453125 37.984375 14.40625 
Q 37.984375 18.0625 35.515625 20.015625 
Q 33.0625 21.96875 24.703125 23.78125 
L 21.578125 24.515625 
Q 13.234375 26.265625 9.515625 29.90625 
Q 5.8125 33.546875 5.8125 39.890625 
Q 5.8125 47.609375 11.28125 51.796875 
Q 16.75 56 26.8125 56 
Q 31.78125 56 36.171875 55.265625 
Q 40.578125 54.546875 44.28125 53.078125 
z
" id="DejaVuSans-73"/>
      <path d="M 8.015625 75.875 
L 15.828125 75.875 
Q 23.140625 64.359375 26.78125 53.3125 
Q 30.421875 42.28125 30.421875 31.390625 
Q 30.421875 20.453125 26.78125 9.375 
Q 23.140625 -1.703125 15.828125 -13.1875 
L 8.015625 -13.1875 
Q 14.5 -2 17.703125 9.0625 
Q 20.90625 20.125 20.90625 31.390625 
Q 20.90625 42.671875 17.703125 53.65625 
Q 14.5 64.65625 8.015625 75.875 
z
" id="DejaVuSans-29"/>
     </defs>
     <g transform="translate(141.582812 332.120313)scale(0.1 -0.1)">
      <use xlink:href="#DejaVuSans-54"/>
      <use x="61.037109" xlink:href="#DejaVuSans-69"/>
      <use x="88.820312" xlink:href="#DejaVuSans-6d"/>
      <use x="186.232422" xlink:href="#DejaVuSans-65"/>
      <use x="247.755859" xlink:href="#DejaVuSans-20"/>
      <use x="279.542969" xlink:href="#DejaVuSans-28"/>
      <use x="318.556641" xlink:href="#DejaVuSans-79"/>
      <use x="377.736328" xlink:href="#DejaVuSans-65"/>
      <use x="439.259766" xlink:href="#DejaVuSans-61"/>
      <use x="500.539062" xlink:href="#DejaVuSans-72"/>
      <use x="541.652344" xlink:href="#DejaVuSans-73"/>
      <use x="593.751953" xlink:href="#DejaVuSans-29"/>
     </g>
    </g>
   </g>
   <g id="matplotlib.axis_2">
    <g id="ytick_1">
     <g id="line2d_7">
      <defs>
       <path d="M 0 0 
L -3.5 0 
" id="m0ac7fd97af" style="stroke:#0000ff;stroke-width:0.8;"/>
      </defs>
      <g>
       <use style="fill:#0000ff;stroke:#0000ff;stroke-width:0.8;" x="50.565625" xlink:href="#m0ac7fd97af" y="271.745865"/>
      </g>
     </g>
     <g id="text_8">
      <!-- 320 -->
      <defs>
       <path d="M 40.578125 39.3125 
Q 47.65625 37.796875 51.625 33 
Q 55.609375 28.21875 55.609375 21.1875 
Q 55.609375 10.40625 48.1875 4.484375 
Q 40.765625 -1.421875 27.09375 -1.421875 
Q 22.515625 -1.421875 17.65625 -0.515625 
Q 12.796875 0.390625 7.625 2.203125 
L 7.625 11.71875 
Q 11.71875 9.328125 16.59375 8.109375 
Q 21.484375 6.890625 26.8125 6.890625 
Q 36.078125 6.890625 40.9375 10.546875 
Q 45.796875 14.203125 45.796875 21.1875 
Q 45.796875 27.640625 41.28125 31.265625 
Q 36.765625 34.90625 28.71875 34.90625 
L 20.21875 34.90625 
L 20.21875 43.015625 
L 29.109375 43.015625 
Q 36.375 43.015625 40.234375 45.921875 
Q 44.09375 48.828125 44.09375 54.296875 
Q 44.09375 59.90625 40.109375 62.90625 
Q 36.140625 65.921875 28.71875 65.921875 
Q 24.65625 65.921875 20.015625 65.03125 
Q 15.375 64.15625 9.8125 62.3125 
L 9.8125 71.09375 
Q 15.4375 72.65625 20.34375 73.4375 
Q 25.25 74.21875 29.59375 74.21875 
Q 40.828125 74.21875 47.359375 69.109375 
Q 53.90625 64.015625 53.90625 55.328125 
Q 53.90625 49.265625 50.4375 45.09375 
Q 46.96875 40.921875 40.578125 39.3125 
z
" id="DejaVuSans-33"/>
      </defs>
      <g style="fill:#0000ff;" transform="translate(24.478125 275.545084)scale(0.1 -0.1)">
       <use xlink:href="#DejaVuSans-33"/>
       <use x="63.623047" xlink:href="#DejaVuSans-32"/>
       <use x="127.246094" xlink:href="#DejaVuSans-30"/>
      </g>
     </g>
    </g>
    <g id="ytick_2">
     <g id="line2d_8">
      <g>
       <use style="fill:#0000ff;stroke:#0000ff;stroke-width:0.8;" x="50.565625" xlink:href="#m0ac7fd97af" y="216.04938"/>
      </g>
     </g>
     <g id="text_9">
      <!-- 340 -->
      <defs>
       <path d="M 37.796875 64.3125 
L 12.890625 25.390625 
L 37.796875 25.390625 
z
M 35.203125 72.90625 
L 47.609375 72.90625 
L 47.609375 25.390625 
L 58.015625 25.390625 
L 58.015625 17.1875 
L 47.609375 17.1875 
L 47.609375 0 
L 37.796875 0 
L 37.796875 17.1875 
L 4.890625 17.1875 
L 4.890625 26.703125 
z
" id="DejaVuSans-34"/>
      </defs>
      <g style="fill:#0000ff;" transform="translate(24.478125 219.848599)scale(0.1 -0.1)">
       <use xlink:href="#DejaVuSans-33"/>
       <use x="63.623047" xlink:href="#DejaVuSans-34"/>
       <use x="127.246094" xlink:href="#DejaVuSans-30"/>
      </g>
     </g>
    </g>
    <g id="ytick_3">
     <g id="line2d_9">
      <g>
       <use style="fill:#0000ff;stroke:#0000ff;stroke-width:0.8;" x="50.565625" xlink:href="#m0ac7fd97af" y="160.352894"/>
      </g>
     </g>
     <g id="text_10">
      <!-- 360 -->
      <g style="fill:#0000ff;" transform="translate(24.478125 164.152113)scale(0.1 -0.1)">
       <use xlink:href="#DejaVuSans-33"/>
       <use x="63.623047" xlink:href="#DejaVuSans-36"/>
       <use x="127.246094" xlink:href="#DejaVuSans-30"/>
      </g>
     </g>
    </g>
    <g id="ytick_4">
     <g id="line2d_10">
      <g>
       <use style="fill:#0000ff;stroke:#0000ff;stroke-width:0.8;" x="50.565625" xlink:href="#m0ac7fd97af" y="104.656409"/>
      </g>
     </g>
     <g id="text_11">
      <!-- 380 -->
      <g style="fill:#0000ff;" transform="translate(24.478125 108.455627)scale(0.1 -0.1)">
       <use xlink:href="#DejaVuSans-33"/>
       <use x="63.623047" xlink:href="#DejaVuSans-38"/>
       <use x="127.246094" xlink:href="#DejaVuSans-30"/>
      </g>
     </g>
    </g>
    <g id="ytick_5">
     <g id="line2d_11">
      <g>
       <use style="fill:#0000ff;stroke:#0000ff;stroke-width:0.8;" x="50.565625" xlink:href="#m0ac7fd97af" y="48.959923"/>
      </g>
     </g>
     <g id="text_12">
      <!-- 400 -->
      <g style="fill:#0000ff;" transform="translate(24.478125 52.759142)scale(0.1 -0.1)">
       <use xlink:href="#DejaVuSans-34"/>
       <use x="63.623047" xlink:href="#DejaVuSans-30"/>
       <use x="127.246094" xlink:href="#DejaVuSans-30"/>
      </g>
     </g>
    </g>
    <g id="text_13">
     <!-- CO2 levels -->
     <defs>
      <path d="M 64.40625 67.28125 
L 64.40625 56.890625 
Q 59.421875 61.53125 53.78125 63.8125 
Q 48.140625 66.109375 41.796875 66.109375 
Q 29.296875 66.109375 22.65625 58.46875 
Q 16.015625 50.828125 16.015625 36.375 
Q 16.015625 21.96875 22.65625 14.328125 
Q 29.296875 6.6875 41.796875 6.6875 
Q 48.140625 6.6875 53.78125 8.984375 
Q 59.421875 11.28125 64.40625 15.921875 
L 64.40625 5.609375 
Q 59.234375 2.09375 53.4375 0.328125 
Q 47.65625 -1.421875 41.21875 -1.421875 
Q 24.65625 -1.421875 15.125 8.703125 
Q 5.609375 18.84375 5.609375 36.375 
Q 5.609375 53.953125 15.125 64.078125 
Q 24.65625 74.21875 41.21875 74.21875 
Q 47.75 74.21875 53.53125 72.484375 
Q 59.328125 70.75 64.40625 67.28125 
z
" id="DejaVuSans-43"/>
      <path d="M 39.40625 66.21875 
Q 28.65625 66.21875 22.328125 58.203125 
Q 16.015625 50.203125 16.015625 36.375 
Q 16.015625 22.609375 22.328125 14.59375 
Q 28.65625 6.59375 39.40625 6.59375 
Q 50.140625 6.59375 56.421875 14.59375 
Q 62.703125 22.609375 62.703125 36.375 
Q 62.703125 50.203125 56.421875 58.203125 
Q 50.140625 66.21875 39.40625 66.21875 
z
M 39.40625 74.21875 
Q 54.734375 74.21875 63.90625 63.9375 
Q 73.09375 53.65625 73.09375 36.375 
Q 73.09375 19.140625 63.90625 8.859375 
Q 54.734375 -1.421875 39.40625 -1.421875 
Q 24.03125 -1.421875 14.8125 8.828125 
Q 5.609375 19.09375 5.609375 36.375 
Q 5.609375 53.65625 14.8125 63.9375 
Q 24.03125 74.21875 39.40625 74.21875 
z
" id="DejaVuSans-4f"/>
      <path d="M 9.421875 75.984375 
L 18.40625 75.984375 
L 18.40625 0 
L 9.421875 0 
z
" id="DejaVuSans-6c"/>
      <path d="M 2.984375 54.6875 
L 12.5 54.6875 
L 29.59375 8.796875 
L 46.6875 54.6875 
L 56.203125 54.6875 
L 35.6875 0 
L 23.484375 0 
z
" id="DejaVuSans-76"/>
     </defs>
     <g style="fill:#0000ff;" transform="translate(18.398438 185.764844)rotate(-90)scale(0.1 -0.1)">
      <use xlink:href="#DejaVuSans-43"/>
      <use x="69.824219" xlink:href="#DejaVuSans-4f"/>
      <use x="148.535156" xlink:href="#DejaVuSans-32"/>
      <use x="212.158203" xlink:href="#DejaVuSans-20"/>
      <use x="243.945312" xlink:href="#DejaVuSans-6c"/>
      <use x="271.728516" xlink:href="#DejaVuSans-65"/>
      <use x="333.251953" xlink:href="#DejaVuSans-76"/>
      <use x="392.431641" xlink:href="#DejaVuSans-65"/>
      <use x="453.955078" xlink:href="#DejaVuSans-6c"/>
      <use x="481.738281" xlink:href="#DejaVuSans-73"/>
     </g>
    </g>
   </g>
   <g id="line2d_12">
    <path clip-path="url(#p9a5878f395)" d="M 61.716122 283.692762 
L 62.038271 278.847167 
L 62.350027 278.707926 
M 62.983933 283.275038 
L 63.306081 285.864924 
L 63.62823 290.68267 
M 64.262135 290.320643 
L 64.89604 283.943396 
L 65.218189 281.826929 
L 65.509162 280.907937 
L 65.83131 278.095265 
L 66.143067 276.507915 
L 66.465216 276.89779 
L 67.099121 286.226952 
L 67.421269 288.900383 
L 67.733026 290.515581 
L 68.055175 286.226952 
L 69.011228 280.183883 
L 69.312593 278.48514 
L 69.946498 271.662321 
L 70.268647 272.887643 
L 70.580404 276.814246 
L 71.224701 288.009239 
L 71.536457 288.928231 
L 72.492511 280.295276 
L 73.105633 275.811709 
L 73.739538 270.130667 
L 74.061687 272.386375 
L 74.373443 275.728164 
L 75.01774 286.226952 
L 75.651646 282.60668 
L 76.285551 277.482603 
L 76.607699 275.756012 
L 77.220821 269.991426 
L 77.532578 268.933193 
L 77.854726 270.214212 
L 78.166483 272.915492 
L 78.488631 278.986408 
L 79.122537 284.500361 
L 79.756442 278.178809 
L 80.07859 275.254744 
L 80.400739 274.307904 
L 80.691712 272.135741 
L 81.01386 267.87496 
L 81.325617 265.480011 
L 81.647766 267.652174 
L 82.60382 282.300349 
L 82.915576 282.913011 
L 83.87163 272.94334 
M 85.129049 265.480011 
L 85.451197 266.482547 
L 86.085102 275.366137 
L 86.407251 280.935785 
L 86.719008 280.685151 
L 87.99721 270.520543 
L 88.288183 269.267372 
L 88.610332 265.81419 
L 88.922088 265.730645 
L 89.244237 266.538244 
L 89.555993 267.87496 
L 89.878142 275.059806 
L 90.200291 277.844631 
L 90.512047 279.264891 
L 90.834196 274.892717 
L 91.145952 273.361063 
L 91.79025 267.317995 
L 92.081223 265.090135 
L 92.403371 260.968595 
L 92.715128 260.57872 
L 93.037276 261.302774 
L 93.349033 265.090135 
L 93.99333 275.533226 
L 94.305087 277.037031 
L 94.938992 268.738255 
L 95.261141 265.981279 
L 95.874262 263.28 
L 96.196411 259.436942 
L 96.508167 257.821744 
L 96.830316 260.355934 
L 97.78637 273.667394 
L 98.098126 273.667394 
L 98.732032 266.28761 
L 99.677694 260.912899 
L 99.999842 257.766047 
L 100.311599 256.234394 
L 100.633747 256.819207 
L 100.945504 260.216693 
L 101.589801 270.604087 
L 101.901558 271.049659 
L 102.223706 268.097746 
L 102.857612 260.606568 
L 103.17976 259.436942 
L 103.792882 253.198936 
L 104.104638 251.305255 
L 104.426787 252.920453 
L 104.738544 255.371099 
L 105.060692 261.52556 
L 105.382841 265.117984 
L 105.694597 266.788878 
L 107.585921 249.105244 
L 107.897678 249.272333 
L 108.219827 250.414111 
L 108.853732 258.685039 
L 109.17588 263.11291 
L 109.487637 262.945821 
L 109.809786 260.662265 
L 110.443691 254.5635 
L 111.378961 250.079932 
L 111.690718 246.905233 
L 112.012866 247.879921 
L 112.324623 251.305255 
L 112.96892 262.388856 
L 113.280677 261.804043 
L 113.914582 255.009071 
L 114.558879 250.497656 
L 114.860244 250.163477 
L 115.182392 244.677373 
L 115.494149 243.702685 
L 116.128054 249.32803 
L 116.772351 258.016682 
L 117.084108 257.654654 
L 117.718013 250.720442 
L 119.287189 236.991258 
L 119.609337 238.133036 
L 120.243242 245.819151 
L 120.565391 250.831835 
L 120.877148 251.750827 
L 121.199296 249.021699 
L 121.511053 247.684984 
L 121.833201 245.707758 
L 122.446323 239.776083 
L 122.768471 236.517838 
L 123.080228 234.986185 
L 123.714133 240.917861 
L 124.358431 251.360952 
L 124.670187 251.472345 
L 125.304092 245.067249 
L 125.626241 241.864701 
L 126.239362 238.606456 
L 126.561511 235.06973 
L 126.873268 232.925415 
L 127.195416 234.289979 
L 128.15147 248.074859 
L 128.463227 248.492583 
L 128.785375 245.652062 
M 129.419281 239.469752 
L 130.364943 230.976038 
L 130.676699 230.614011 
L 131.310604 235.37606 
L 131.954902 246.821688 
L 132.266658 247.378653 
L 133.222712 236.48999 
L 133.544861 235.181123 
L 133.835834 230.112742 
L 134.469739 224.59879 
L 134.791887 226.715257 
L 135.103644 230.30768 
L 135.425793 236.768472 
L 135.747941 240.305199 
L 136.059698 240.360896 
L 137.015752 230.112742 
L 137.3379 229.277295 
L 137.951022 222.482324 
L 138.262778 221.535484 
L 138.584927 221.59118 
L 139.218832 231.616547 
L 139.540981 237.297589 
L 139.852737 237.186196 
L 140.808791 226.798801 
L 141.13094 225.267148 
L 141.421913 220.867126 
L 141.744061 218.973445 
L 142.055818 218.249391 
L 142.377966 218.11015 
L 143.33402 232.814022 
L 143.645777 232.229209 
L 143.967926 229.110206 
L 144.601831 221.897511 
L 144.923979 220.672188 
L 145.225344 216.021532 
L 145.547493 213.459493 
L 145.859249 211.92784 
L 146.181398 212.345563 
L 146.815303 222.454476 
L 147.137452 226.65956 
L 147.449208 226.770953 
L 149.340532 209.003774 
L 149.652289 207.611362 
L 149.974438 208.975926 
L 150.930491 224.543094 
L 151.242248 224.181067 
L 151.876153 216.383559 
L 153.133572 204.993627 
L 153.445329 203.155643 
L 153.767477 205.494896 
L 154.079234 209.588587 
L 154.723531 220.839278 
L 155.035288 220.811429 
L 155.669193 213.543038 
L 155.991341 211.370875 
L 156.31349 207.973389 
L 156.604463 206.775915 
L 156.926611 201.429052 
L 157.238368 199.256889 
L 157.560517 200.370819 
L 158.194422 209.727829 
L 158.51657 215.074691 
L 158.828327 214.991147 
L 160.10653 202.710071 
L 160.407894 200.67715 
M 161.0418 194.801171 
L 161.363948 196.639155 
L 161.997853 206.163254 
L 162.320002 212.150626 
L 162.631759 211.398723 
L 163.265664 202.960706 
L 163.587812 201.540445 
L 163.909961 198.894862 
L 164.200934 194.49484 
L 164.834839 190.818872 
L 165.156988 192.712552 
L 166.113042 206.943004 
L 166.424798 207.33288 
L 167.058703 199.674613 
L 167.993973 193.742937 
L 168.316122 188.841647 
L 168.627879 187.142904 
L 168.950027 188.396075 
L 169.583933 199.117648 
L 170.217838 203.489822 
L 171.173892 192.322677 
L 171.49604 191.737864 
L 171.787013 188.95304 
L 172.109162 184.553017 
L 172.420918 182.380854 
L 172.743067 183.940356 
L 173.054824 187.894806 
L 173.699121 197.892325 
L 174.010877 197.697388 
L 175.28908 183.634025 
L 175.590444 181.48971 
L 175.912593 177.925135 
L 176.22435 176.477027 
L 176.546498 177.841591 
L 176.858255 180.70996 
L 177.180404 187.087207 
L 177.502552 191.208747 
L 177.814309 190.623934 
L 178.448214 184.274535 
L 178.770363 180.097298 
L 179.092511 179.094762 
L 179.383484 177.173233 
L 179.705633 172.494728 
L 180.017389 171.882067 
L 180.339538 173.246631 
L 180.651295 177.089688 
L 181.295592 188.061896 
L 181.607348 187.504931 
L 182.885551 174.165623 
L 183.810429 167.816223 
L 184.132577 170.545351 
L 185.088631 184.553017 
L 185.400388 183.689722 
L 186.034293 176.142848 
L 186.356442 174.722587 
L 186.67859 172.244094 
L 187.291712 164.084559 
L 187.603468 162.775691 
L 187.925617 165.560516 
L 188.881671 181.935282 
L 189.193428 181.6568 
L 190.149481 170.795985 
L 190.772995 166.312418 
L 191.095143 162.887084 
L 191.4069 161.494672 
L 191.729048 162.218726 
L 192.685102 179.958057 
L 192.996859 178.95552 
L 193.630764 172.689666 
L 193.952913 168.707367 
L 194.275061 167.844071 
L 194.566034 164.613675 
L 195.19994 159.823778 
L 195.522088 161.68961 
L 196.155993 172.494728 
L 196.478142 176.978295 
L 196.789899 176.727661 
L 198.359074 160.380742 
L 198.681222 156.92756 
L 198.992979 155.757934 
L 199.315128 158.097187 
L 199.949033 167.426348 
L 200.271181 172.244094 
L 200.582938 171.297254 
L 201.538992 160.57568 
L 202.152113 155.256666 
L 202.474262 151.162974 
L 202.786019 150.076893 
L 203.108167 151.469305 
L 203.419924 155.785782 
L 203.742072 162.80354 
L 204.064221 165.449123 
L 204.375978 165.950391 
L 205.332032 154.588308 
L 205.955545 148.740177 
L 206.277693 147.626247 
L 206.58945 146.066746 
L 206.911599 146.651559 
L 207.223355 150.466768 
L 207.867652 161.633913 
L 208.179409 161.52252 
L 209.135463 151.747787 
L 209.457612 149.130052 
L 209.748584 147.793337 
L 210.070733 142.66926 
L 210.38249 141.861661 
L 211.016395 148.350302 
L 211.660692 159.545295 
L 211.972449 158.069338 
L 212.928503 145.704718 
L 213.250651 143.699645 
L 213.863773 136.236316 
L 214.175529 134.119849 
L 214.497678 135.317324 
L 214.809435 138.575568 
L 215.453732 149.157901 
L 215.765488 148.099667 
L 216.087637 144.980664 
L 216.399394 140.497097 
L 217.043691 135.094538 
L 217.334664 133.395795 
L 217.656812 129.747675 
L 217.968569 129.83122 
L 218.602474 134.036305 
L 219.246771 146.957889 
L 219.558528 145.398388 
L 220.514582 134.481877 
L 220.83673 133.785671 
L 221.460244 127.464119 
L 221.772 128.104629 
L 222.094149 127.77045 
L 222.728054 137.712273 
L 223.050203 140.859124 
L 223.361959 140.775579 
L 224.318013 130.861605 
L 225.56504 121.783078 
L 225.887188 123.565365 
L 226.843242 137.573032 
L 227.154999 136.821129 
L 228.433201 123.593214 
L 229.046323 118.524833 
L 229.358079 116.464064 
L 229.680228 117.132421 
L 229.991985 121.337506 
L 230.314133 127.352726 
L 230.636282 130.416033 
L 230.948039 130.972998 
L 231.581944 121.950167 
L 232.226241 116.798242 
L 232.517214 114.542535 
L 233.151119 108.555163 
L 233.473268 109.446306 
L 233.785024 113.846329 
L 234.107173 120.307121 
L 234.429321 123.676758 
L 234.741078 123.760303 
L 235.374983 115.823554 
L 236.320645 107.775412 
L 236.642794 103.68172 
L 236.95455 102.929818 
L 237.276699 105.519704 
L 237.588456 111.702014 
L 238.232753 120.669148 
L 238.54451 120.084335 
L 239.178415 111.590621 
L 239.822712 105.408311 
L 240.435833 98.279161 
L 240.74759 97.833589 
L 241.069739 98.501947 
L 241.703644 108.165287 
L 242.025792 113.846329 
L 242.337549 113.010881 
L 243.615751 98.557643 
L 243.906724 97.220928 
L 244.228873 91.818369 
L 244.54063 90.648742 
L 244.862778 93.37787 
L 245.818832 107.858956 
L 246.130589 107.079206 
L 246.452737 104.238685 
L 246.764494 99.588028 
L 247.699764 91.901913 
L 248.021913 86.555051 
L 248.333669 86.387961 
L 248.655818 87.66898 
L 248.967574 92.124699 
L 249.289723 99.114608 
L 249.611872 101.982977 
L 249.923628 101.537405 
L 250.879682 89.284179 
L 251.503195 87.863918 
L 252.137101 80.874009 
L 252.459249 83.046172 
L 252.771006 86.944926 
L 253.093154 93.266477 
L 253.415303 95.800667 
L 253.72706 96.329784 
L 255.296235 80.094258 
L 255.93014 76.41829 
L 256.252289 78.256274 
L 257.208343 91.456341 
L 257.520099 92.319637 
L 258.798302 76.251201 
L 259.72318 68.453693 
L 260.045328 70.820794 
L 261.001382 85.580362 
L 261.313139 84.494281 
L 262.269193 73.104349 
L 262.591341 71.628393 
L 263.516219 65.139752 
L 263.838368 66.420771 
L 264.150125 69.818257 
L 264.472273 76.446139 
L 264.794422 79.370204 
L 265.106178 79.59299 
L 266.384381 66.058744 
L 266.685746 64.554939 
L 267.007894 59.597952 
L 267.319651 58.03845 
L 267.953556 64.666332 
L 268.275705 70.152436 
L 268.597853 73.717011 
L 268.90961 73.8841 
L 269.543515 64.722028 
L 270.187812 57.871361 
L 270.478785 56.116921 
L 270.800934 53.387794 
L 271.11269 49.572584 
L 271.746596 56.423252 
L 272.390893 67.200522 
L 272.702649 66.504316 
L 273.658703 54.947295 
L 273.980852 54.501723 
L 274.593973 45.116865 
L 274.90573 44.002936 
L 275.227879 45.478893 
L 276.183932 61.825811 
L 276.495689 60.015675 
L 277.451743 49.015619 
L 277.773891 48.180172 
L 278.69877 37.932019 
L 279.332675 45.311803 
L 279.654823 51.939685 
L 279.976972 55.559957 
L 280.288729 53.721973 
L 280.922634 43.807998 
L 281.244782 41.830773 
L 281.566931 37.486447 
L 281.868296 35.397829 
L 282.190444 28.212982 
L 282.502201 27.46108 
L 282.82435 29.939573 
L 283.458255 42.638372 
L 283.780403 46.035857 
L 284.09216 44.532052 
L 284.414309 39.073797 
L 284.726065 36.567455 
L 284.726065 36.567455 
" style="fill:none;stroke:#0000ff;stroke-linecap:square;stroke-width:1.5;"/>
   </g>
   <g id="patch_3">
    <path d="M 50.565625 303.84375 
L 50.565625 14.3 
" style="fill:none;stroke:#000000;stroke-linecap:square;stroke-linejoin:miter;stroke-width:0.8;"/>
   </g>
   <g id="patch_4">
    <path d="M 295.876562 303.84375 
L 295.876562 14.3 
" style="fill:none;stroke:#000000;stroke-linecap:square;stroke-linejoin:miter;stroke-width:0.8;"/>
   </g>
   <g id="patch_5">
    <path d="M 50.565625 303.84375 
L 295.876563 303.84375 
" style="fill:none;stroke:#000000;stroke-linecap:square;stroke-linejoin:miter;stroke-width:0.8;"/>
   </g>
   <g id="patch_6">
    <path d="M 50.565625 14.3 
L 295.876563 14.3 
" style="fill:none;stroke:#000000;stroke-linecap:square;stroke-linejoin:miter;stroke-width:0.8;"/>
   </g>
  </g>
  <g id="axes_2">
   <g id="matplotlib.axis_3">
    <g id="ytick_6">
     <g id="line2d_13">
      <defs>
       <path d="M 0 0 
L 3.5 0 
" id="m6648a56ffc" style="stroke:#ff0000;stroke-width:0.8;"/>
      </defs>
      <g>
       <use style="fill:#ff0000;stroke:#ff0000;stroke-width:0.8;" x="295.876562" xlink:href="#m6648a56ffc" y="273.750287"/>
      </g>
     </g>
     <g id="text_14">
      <!-- −0.25 -->
      <defs>
       <path d="M 10.59375 35.5 
L 73.1875 35.5 
L 73.1875 27.203125 
L 10.59375 27.203125 
z
" id="DejaVuSans-2212"/>
       <path d="M 10.6875 12.40625 
L 21 12.40625 
L 21 0 
L 10.6875 0 
z
" id="DejaVuSans-2e"/>
       <path d="M 10.796875 72.90625 
L 49.515625 72.90625 
L 49.515625 64.59375 
L 19.828125 64.59375 
L 19.828125 46.734375 
Q 21.96875 47.46875 24.109375 47.828125 
Q 26.265625 48.1875 28.421875 48.1875 
Q 40.625 48.1875 47.75 41.5 
Q 54.890625 34.8125 54.890625 23.390625 
Q 54.890625 11.625 47.5625 5.09375 
Q 40.234375 -1.421875 26.90625 -1.421875 
Q 22.3125 -1.421875 17.546875 -0.640625 
Q 12.796875 0.140625 7.71875 1.703125 
L 7.71875 11.625 
Q 12.109375 9.234375 16.796875 8.0625 
Q 21.484375 6.890625 26.703125 6.890625 
Q 35.15625 6.890625 40.078125 11.328125 
Q 45.015625 15.765625 45.015625 23.390625 
Q 45.015625 31 40.078125 35.4375 
Q 35.15625 39.890625 26.703125 39.890625 
Q 22.75 39.890625 18.8125 39.015625 
Q 14.890625 38.140625 10.796875 36.28125 
z
" id="DejaVuSans-35"/>
      </defs>
      <g style="fill:#ff0000;" transform="translate(302.876562 277.549506)scale(0.1 -0.1)">
       <use xlink:href="#DejaVuSans-2212"/>
       <use x="83.789062" xlink:href="#DejaVuSans-30"/>
       <use x="147.412109" xlink:href="#DejaVuSans-2e"/>
       <use x="179.199219" xlink:href="#DejaVuSans-32"/>
       <use x="242.822266" xlink:href="#DejaVuSans-35"/>
      </g>
     </g>
    </g>
    <g id="ytick_7">
     <g id="line2d_14">
      <g>
       <use style="fill:#ff0000;stroke:#ff0000;stroke-width:0.8;" x="295.876562" xlink:href="#m6648a56ffc" y="235.267599"/>
      </g>
     </g>
     <g id="text_15">
      <!-- 0.00 -->
      <g style="fill:#ff0000;" transform="translate(302.876562 239.066817)scale(0.1 -0.1)">
       <use xlink:href="#DejaVuSans-30"/>
       <use x="63.623047" xlink:href="#DejaVuSans-2e"/>
       <use x="95.410156" xlink:href="#DejaVuSans-30"/>
       <use x="159.033203" xlink:href="#DejaVuSans-30"/>
      </g>
     </g>
    </g>
    <g id="ytick_8">
     <g id="line2d_15">
      <g>
       <use style="fill:#ff0000;stroke:#ff0000;stroke-width:0.8;" x="295.876562" xlink:href="#m6648a56ffc" y="196.78491"/>
      </g>
     </g>
     <g id="text_16">
      <!-- 0.25 -->
      <g style="fill:#ff0000;" transform="translate(302.876562 200.584129)scale(0.1 -0.1)">
       <use xlink:href="#DejaVuSans-30"/>
       <use x="63.623047" xlink:href="#DejaVuSans-2e"/>
       <use x="95.410156" xlink:href="#DejaVuSans-32"/>
       <use x="159.033203" xlink:href="#DejaVuSans-35"/>
      </g>
     </g>
    </g>
    <g id="ytick_9">
     <g id="line2d_16">
      <g>
       <use style="fill:#ff0000;stroke:#ff0000;stroke-width:0.8;" x="295.876562" xlink:href="#m6648a56ffc" y="158.302221"/>
      </g>
     </g>
     <g id="text_17">
      <!-- 0.50 -->
      <g style="fill:#ff0000;" transform="translate(302.876562 162.10144)scale(0.1 -0.1)">
       <use xlink:href="#DejaVuSans-30"/>
       <use x="63.623047" xlink:href="#DejaVuSans-2e"/>
       <use x="95.410156" xlink:href="#DejaVuSans-35"/>
       <use x="159.033203" xlink:href="#DejaVuSans-30"/>
      </g>
     </g>
    </g>
    <g id="ytick_10">
     <g id="line2d_17">
      <g>
       <use style="fill:#ff0000;stroke:#ff0000;stroke-width:0.8;" x="295.876562" xlink:href="#m6648a56ffc" y="119.819532"/>
      </g>
     </g>
     <g id="text_18">
      <!-- 0.75 -->
      <g style="fill:#ff0000;" transform="translate(302.876562 123.618751)scale(0.1 -0.1)">
       <use xlink:href="#DejaVuSans-30"/>
       <use x="63.623047" xlink:href="#DejaVuSans-2e"/>
       <use x="95.410156" xlink:href="#DejaVuSans-37"/>
       <use x="159.033203" xlink:href="#DejaVuSans-35"/>
      </g>
     </g>
    </g>
    <g id="ytick_11">
     <g id="line2d_18">
      <g>
       <use style="fill:#ff0000;stroke:#ff0000;stroke-width:0.8;" x="295.876562" xlink:href="#m6648a56ffc" y="81.336844"/>
      </g>
     </g>
     <g id="text_19">
      <!-- 1.00 -->
      <g style="fill:#ff0000;" transform="translate(302.876562 85.136063)scale(0.1 -0.1)">
       <use xlink:href="#DejaVuSans-31"/>
       <use x="63.623047" xlink:href="#DejaVuSans-2e"/>
       <use x="95.410156" xlink:href="#DejaVuSans-30"/>
       <use x="159.033203" xlink:href="#DejaVuSans-30"/>
      </g>
     </g>
    </g>
    <g id="ytick_12">
     <g id="line2d_19">
      <g>
       <use style="fill:#ff0000;stroke:#ff0000;stroke-width:0.8;" x="295.876562" xlink:href="#m6648a56ffc" y="42.854155"/>
      </g>
     </g>
     <g id="text_20">
      <!-- 1.25 -->
      <g style="fill:#ff0000;" transform="translate(302.876562 46.653374)scale(0.1 -0.1)">
       <use xlink:href="#DejaVuSans-31"/>
       <use x="63.623047" xlink:href="#DejaVuSans-2e"/>
       <use x="95.410156" xlink:href="#DejaVuSans-32"/>
       <use x="159.033203" xlink:href="#DejaVuSans-35"/>
      </g>
     </g>
    </g>
    <g id="text_21">
     <!-- Relative temp (Celsius) -->
     <defs>
      <path d="M 44.390625 34.1875 
Q 47.5625 33.109375 50.5625 29.59375 
Q 53.5625 26.078125 56.59375 19.921875 
L 66.609375 0 
L 56 0 
L 46.6875 18.703125 
Q 43.0625 26.03125 39.671875 28.421875 
Q 36.28125 30.8125 30.421875 30.8125 
L 19.671875 30.8125 
L 19.671875 0 
L 9.8125 0 
L 9.8125 72.90625 
L 32.078125 72.90625 
Q 44.578125 72.90625 50.734375 67.671875 
Q 56.890625 62.453125 56.890625 51.90625 
Q 56.890625 45.015625 53.6875 40.46875 
Q 50.484375 35.9375 44.390625 34.1875 
z
M 19.671875 64.796875 
L 19.671875 38.921875 
L 32.078125 38.921875 
Q 39.203125 38.921875 42.84375 42.21875 
Q 46.484375 45.515625 46.484375 51.90625 
Q 46.484375 58.296875 42.84375 61.546875 
Q 39.203125 64.796875 32.078125 64.796875 
z
" id="DejaVuSans-52"/>
      <path d="M 18.3125 70.21875 
L 18.3125 54.6875 
L 36.8125 54.6875 
L 36.8125 47.703125 
L 18.3125 47.703125 
L 18.3125 18.015625 
Q 18.3125 11.328125 20.140625 9.421875 
Q 21.96875 7.515625 27.59375 7.515625 
L 36.8125 7.515625 
L 36.8125 0 
L 27.59375 0 
Q 17.1875 0 13.234375 3.875 
Q 9.28125 7.765625 9.28125 18.015625 
L 9.28125 47.703125 
L 2.6875 47.703125 
L 2.6875 54.6875 
L 9.28125 54.6875 
L 9.28125 70.21875 
z
" id="DejaVuSans-74"/>
      <path d="M 18.109375 8.203125 
L 18.109375 -20.796875 
L 9.078125 -20.796875 
L 9.078125 54.6875 
L 18.109375 54.6875 
L 18.109375 46.390625 
Q 20.953125 51.265625 25.265625 53.625 
Q 29.59375 56 35.59375 56 
Q 45.5625 56 51.78125 48.09375 
Q 58.015625 40.1875 58.015625 27.296875 
Q 58.015625 14.40625 51.78125 6.484375 
Q 45.5625 -1.421875 35.59375 -1.421875 
Q 29.59375 -1.421875 25.265625 0.953125 
Q 20.953125 3.328125 18.109375 8.203125 
z
M 48.6875 27.296875 
Q 48.6875 37.203125 44.609375 42.84375 
Q 40.53125 48.484375 33.40625 48.484375 
Q 26.265625 48.484375 22.1875 42.84375 
Q 18.109375 37.203125 18.109375 27.296875 
Q 18.109375 17.390625 22.1875 11.75 
Q 26.265625 6.109375 33.40625 6.109375 
Q 40.53125 6.109375 44.609375 11.75 
Q 48.6875 17.390625 48.6875 27.296875 
z
" id="DejaVuSans-70"/>
      <path d="M 8.5 21.578125 
L 8.5 54.6875 
L 17.484375 54.6875 
L 17.484375 21.921875 
Q 17.484375 14.15625 20.5 10.265625 
Q 23.53125 6.390625 29.59375 6.390625 
Q 36.859375 6.390625 41.078125 11.03125 
Q 45.3125 15.671875 45.3125 23.6875 
L 45.3125 54.6875 
L 54.296875 54.6875 
L 54.296875 0 
L 45.3125 0 
L 45.3125 8.40625 
Q 42.046875 3.421875 37.71875 1 
Q 33.40625 -1.421875 27.6875 -1.421875 
Q 18.265625 -1.421875 13.375 4.4375 
Q 8.5 10.296875 8.5 21.578125 
z
M 31.109375 56 
z
" id="DejaVuSans-75"/>
     </defs>
     <g style="fill:#ff0000;" transform="translate(345.120312 217.342969)rotate(-90)scale(0.1 -0.1)">
      <use xlink:href="#DejaVuSans-52"/>
      <use x="69.419922" xlink:href="#DejaVuSans-65"/>
      <use x="130.943359" xlink:href="#DejaVuSans-6c"/>
      <use x="158.726562" xlink:href="#DejaVuSans-61"/>
      <use x="220.005859" xlink:href="#DejaVuSans-74"/>
      <use x="259.214844" xlink:href="#DejaVuSans-69"/>
      <use x="286.998047" xlink:href="#DejaVuSans-76"/>
      <use x="346.177734" xlink:href="#DejaVuSans-65"/>
      <use x="407.701172" xlink:href="#DejaVuSans-20"/>
      <use x="439.488281" xlink:href="#DejaVuSans-74"/>
      <use x="478.697266" xlink:href="#DejaVuSans-65"/>
      <use x="540.220703" xlink:href="#DejaVuSans-6d"/>
      <use x="637.632812" xlink:href="#DejaVuSans-70"/>
      <use x="701.109375" xlink:href="#DejaVuSans-20"/>
      <use x="732.896484" xlink:href="#DejaVuSans-28"/>
      <use x="771.910156" xlink:href="#DejaVuSans-43"/>
      <use x="841.734375" xlink:href="#DejaVuSans-65"/>
      <use x="903.257812" xlink:href="#DejaVuSans-6c"/>
      <use x="931.041016" xlink:href="#DejaVuSans-73"/>
      <use x="983.140625" xlink:href="#DejaVuSans-69"/>
      <use x="1010.923828" xlink:href="#DejaVuSans-75"/>
      <use x="1074.302734" xlink:href="#DejaVuSans-73"/>
      <use x="1126.402344" xlink:href="#DejaVuSans-29"/>
     </g>
    </g>
   </g>
   <g id="line2d_20">
    <path clip-path="url(#p9a5878f395)" d="M 61.716122 219.874523 
L 62.038271 233.728291 
L 62.350027 222.953138 
L 62.672176 242.964136 
L 62.983933 226.031753 
L 63.306081 244.503444 
L 63.62823 239.885521 
L 63.939986 229.110368 
L 64.262135 232.188984 
L 64.573892 233.728291 
L 64.89604 226.031753 
L 65.218189 221.413831 
L 65.509162 206.020755 
L 65.83131 210.638678 
L 66.143067 226.031753 
L 66.465216 232.188984 
L 66.776972 226.031753 
L 67.421269 244.503444 
L 67.733026 249.121367 
L 68.055175 249.121367 
L 68.366931 239.885521 
L 68.68908 236.806906 
L 69.011228 213.717293 
L 69.312593 290.68267 
L 69.634742 259.896519 
L 70.268647 233.728291 
L 70.580404 238.346214 
L 70.902552 236.806906 
L 71.224701 227.571061 
L 71.536457 224.492446 
L 71.858606 252.199982 
L 72.170363 207.560063 
L 72.492511 224.492446 
L 72.81466 207.560063 
L 73.105633 221.413831 
L 73.427781 212.177985 
L 73.739538 215.256601 
L 74.061687 216.795908 
L 74.373443 239.885521 
L 74.695592 232.188984 
L 75.01774 227.571061 
L 75.329497 235.267599 
L 75.651646 230.649676 
L 75.963402 258.357212 
L 76.285551 222.953138 
L 76.607699 213.717293 
L 76.898672 216.795908 
L 77.220821 227.571061 
L 77.532578 244.503444 
L 77.854726 226.031753 
L 78.166483 238.346214 
L 78.488631 238.346214 
L 78.81078 236.806906 
L 79.122537 239.885521 
L 79.444685 226.031753 
L 79.756442 236.806906 
L 80.07859 239.885521 
L 80.400739 206.020755 
L 80.691712 255.278597 
L 81.01386 242.964136 
L 81.325617 249.121367 
L 81.647766 230.649676 
L 81.959522 222.953138 
L 82.281671 196.78491 
L 82.915576 212.177985 
L 83.237725 212.177985 
L 83.549481 235.267599 
L 84.193779 253.739289 
L 84.817292 281.446825 
L 85.129049 273.750287 
L 85.451197 246.042752 
L 85.762954 246.042752 
L 86.085102 266.05375 
L 86.407251 278.36821 
L 86.719008 281.446825 
L 87.041156 267.593057 
L 87.352913 281.446825 
L 87.675061 249.121367 
L 87.99721 261.435827 
L 88.288183 252.199982 
L 88.610332 266.05375 
L 89.244237 247.582059 
L 89.555993 253.739289 
L 89.878142 236.806906 
L 90.200291 258.357212 
L 90.512047 241.424829 
L 90.834196 244.503444 
L 91.145952 242.964136 
L 91.468101 259.896519 
L 91.79025 235.267599 
L 92.081223 229.110368 
L 92.403371 255.278597 
L 92.715128 250.660674 
L 93.037276 232.188984 
L 93.349033 221.413831 
L 93.671182 250.660674 
L 93.99333 236.806906 
L 94.305087 258.357212 
L 94.627235 238.346214 
L 94.938992 244.503444 
L 95.261141 244.503444 
L 95.583289 266.05375 
L 95.874262 230.649676 
L 96.196411 242.964136 
L 96.508167 213.717293 
L 96.830316 247.582059 
L 97.142073 233.728291 
L 97.464221 232.188984 
L 97.78637 241.424829 
L 98.098126 226.031753 
L 98.420275 244.503444 
L 98.732032 238.346214 
L 99.05418 270.671672 
L 99.376329 258.357212 
L 99.677694 202.94214 
L 99.999842 242.964136 
L 100.311599 250.660674 
L 100.633747 244.503444 
L 100.945504 252.199982 
L 101.267653 252.199982 
L 101.589801 262.975135 
L 101.901558 216.795908 
L 102.535463 256.817904 
L 102.857612 252.199982 
L 103.17976 256.817904 
L 103.792882 206.020755 
L 104.104638 204.481448 
L 104.426787 227.571061 
L 104.738544 236.806906 
L 105.060692 230.649676 
L 105.382841 219.874523 
L 106.016746 216.795908 
L 106.328503 193.706295 
L 106.650651 221.413831 
L 106.9728 201.402833 
L 107.263773 222.953138 
L 107.585921 221.413831 
L 107.897678 242.964136 
L 108.219827 239.885521 
L 108.531583 241.424829 
L 108.853732 252.199982 
L 109.17588 218.335216 
L 109.487637 227.571061 
L 109.809786 233.728291 
L 110.121542 255.278597 
L 110.443691 238.346214 
L 110.765839 266.05375 
L 111.056812 262.975135 
L 111.378961 249.121367 
L 111.690718 244.503444 
L 112.012866 262.975135 
L 112.324623 253.739289 
L 112.646771 239.885521 
L 112.96892 236.806906 
L 113.280677 242.964136 
L 113.602825 241.424829 
L 113.914582 247.582059 
L 114.23673 272.21098 
L 114.558879 261.435827 
L 114.860244 232.188984 
L 115.494149 239.885521 
L 115.816298 229.110368 
L 116.128054 232.188984 
L 116.450203 207.560063 
L 116.772351 230.649676 
L 117.084108 221.413831 
L 117.406257 230.649676 
L 117.718013 207.560063 
L 118.040162 192.166987 
L 118.36231 189.088372 
L 118.653283 195.245602 
L 118.975432 196.78491 
L 119.287189 195.245602 
L 119.921094 221.413831 
L 120.243242 232.188984 
L 120.565391 226.031753 
L 120.877148 216.795908 
L 121.199296 226.031753 
L 121.511053 244.503444 
L 121.833201 256.817904 
L 122.15535 278.36821 
L 122.446323 242.964136 
L 122.768471 250.660674 
L 123.080228 236.806906 
L 123.402377 242.964136 
L 123.714133 239.885521 
L 124.036282 216.795908 
L 124.358431 253.739289 
L 124.670187 246.042752 
L 124.992336 246.042752 
L 125.304092 249.121367 
L 125.626241 224.492446 
L 125.94839 224.492446 
L 126.239362 213.717293 
L 126.561511 226.031753 
L 126.873268 210.638678 
L 127.195416 238.346214 
L 127.507173 239.885521 
L 127.829322 266.05375 
L 128.15147 239.885521 
L 128.785375 259.896519 
L 129.097132 261.435827 
L 129.419281 235.267599 
L 129.741429 244.503444 
L 130.042794 267.593057 
L 130.364943 250.660674 
L 130.676699 270.671672 
L 130.998848 258.357212 
L 131.310604 253.739289 
L 131.632753 262.975135 
L 131.954902 249.121367 
L 132.266658 275.289595 
L 132.900563 221.413831 
L 133.222712 207.560063 
L 133.544861 204.481448 
L 133.835834 196.78491 
L 134.157982 193.706295 
L 134.469739 189.088372 
L 134.791887 196.78491 
L 135.103644 199.863525 
L 135.425793 206.020755 
L 135.747941 232.188984 
L 136.059698 229.110368 
L 136.381846 204.481448 
L 136.693603 227.571061 
L 137.015752 222.953138 
L 137.628873 202.94214 
L 137.951022 212.177985 
L 138.584927 239.885521 
L 138.896684 224.492446 
L 139.218832 262.975135 
L 139.540981 227.571061 
L 139.852737 235.267599 
L 140.174886 210.638678 
L 140.486643 218.335216 
L 140.808791 213.717293 
L 141.13094 249.121367 
L 141.421913 206.020755 
L 142.055818 226.031753 
L 142.377966 213.717293 
L 142.689723 230.649676 
L 143.33402 193.706295 
L 143.645777 195.245602 
L 143.967926 190.62768 
L 144.279682 162.920144 
L 144.601831 189.088372 
L 144.923979 170.616682 
L 145.225344 190.62768 
L 145.859249 182.931142 
L 146.181398 210.638678 
L 146.493155 192.166987 
L 147.137452 202.94214 
L 147.449208 204.481448 
L 147.771357 189.088372 
L 148.083114 202.94214 
L 148.405262 149.066376 
L 148.727411 172.155989 
L 149.018384 161.380836 
L 149.340532 186.009757 
L 149.652289 196.78491 
L 150.286194 181.391834 
L 150.608343 181.391834 
L 150.930491 209.09937 
L 151.242248 215.256601 
L 151.564397 202.94214 
L 151.876153 173.695297 
L 152.198302 221.413831 
L 152.52045 213.717293 
L 152.811423 236.806906 
L 153.133572 219.874523 
L 153.445329 210.638678 
L 153.767477 227.571061 
L 154.079234 215.256601 
L 154.401382 222.953138 
L 154.723531 212.177985 
L 155.035288 215.256601 
L 155.357436 213.717293 
L 155.669193 169.077374 
L 155.991341 155.223606 
L 156.31349 173.695297 
L 156.604463 170.616682 
L 156.926611 189.088372 
L 157.238368 181.391834 
L 157.560517 207.560063 
L 157.872273 212.177985 
L 158.194422 189.088372 
L 158.51657 176.773912 
L 158.828327 212.177985 
L 159.150476 189.088372 
L 159.462232 209.09937 
L 159.784381 189.088372 
L 160.10653 209.09937 
L 160.407894 190.62768 
L 160.730043 222.953138 
L 161.0418 184.47045 
L 161.363948 229.110368 
L 161.675705 210.638678 
L 161.997853 212.177985 
L 162.320002 204.481448 
L 162.631759 212.177985 
L 163.265664 244.503444 
L 163.587812 202.94214 
L 163.909961 244.503444 
L 164.200934 209.09937 
L 164.523082 218.335216 
L 164.834839 209.09937 
L 165.156988 209.09937 
L 165.468744 235.267599 
L 165.790893 212.177985 
L 166.113042 213.717293 
L 166.424798 218.335216 
L 166.746947 221.413831 
L 167.058703 212.177985 
L 167.380852 189.088372 
L 167.703001 175.234604 
L 167.993973 190.62768 
L 168.316122 195.245602 
L 168.627879 195.245602 
L 168.950027 216.795908 
L 169.261784 215.256601 
L 169.583933 216.795908 
L 169.906081 232.188984 
L 170.217838 213.717293 
L 170.539986 218.335216 
L 170.851743 210.638678 
L 171.173892 179.852527 
L 171.49604 164.459451 
L 171.787013 209.09937 
L 172.109162 198.324218 
L 172.420918 195.245602 
L 173.054824 164.459451 
L 173.376972 192.166987 
L 173.699121 175.234604 
L 174.333026 196.78491 
L 174.644783 162.920144 
L 174.966931 147.527068 
L 175.28908 170.616682 
L 175.590444 159.841529 
L 175.912593 165.998759 
L 176.22435 167.538067 
L 176.546498 170.616682 
L 176.858255 181.391834 
L 177.180404 164.459451 
L 177.502552 170.616682 
L 177.814309 173.695297 
L 178.136457 215.256601 
L 178.448214 182.931142 
L 178.770363 210.638678 
L 179.092511 181.391834 
L 179.383484 179.852527 
L 179.705633 184.47045 
L 180.017389 209.09937 
L 180.339538 212.177985 
L 180.651295 182.931142 
L 180.973443 179.852527 
L 181.295592 178.313219 
L 181.607348 186.009757 
L 181.929497 202.94214 
L 182.241254 178.313219 
L 182.563402 172.155989 
L 182.885551 172.155989 
L 183.176524 118.280225 
L 183.498672 150.605683 
L 184.132577 176.773912 
L 184.444334 167.538067 
L 184.766483 189.088372 
L 185.088631 189.088372 
L 185.400388 169.077374 
L 185.722537 164.459451 
L 186.034293 170.616682 
L 186.356442 170.616682 
L 186.67859 156.762914 
L 186.969563 179.852527 
L 187.291712 153.684299 
L 187.603468 175.234604 
L 187.925617 152.144991 
L 188.237374 156.762914 
L 188.559522 170.616682 
L 188.881671 158.302221 
L 189.193428 186.009757 
L 189.515576 187.549065 
L 189.827333 184.47045 
L 190.149481 165.998759 
L 190.47163 170.616682 
L 190.772995 162.920144 
L 191.095143 198.324218 
L 191.4069 186.009757 
L 191.729048 198.324218 
L 192.040805 215.256601 
L 192.362954 219.874523 
L 192.685102 233.728291 
L 192.996859 218.335216 
L 193.319008 229.110368 
L 193.952913 178.313219 
L 194.275061 175.234604 
L 194.566034 179.852527 
L 194.888183 192.166987 
L 195.522088 198.324218 
L 195.833845 192.166987 
L 196.155993 215.256601 
L 196.478142 218.335216 
L 196.789899 198.324218 
L 197.112047 224.492446 
L 197.745952 189.088372 
L 198.068101 229.110368 
L 198.359074 195.245602 
L 198.681222 172.155989 
L 198.992979 190.62768 
L 199.315128 170.616682 
L 199.949033 199.863525 
L 200.582938 170.616682 
L 200.905087 164.459451 
L 201.216843 179.852527 
L 201.538992 158.302221 
L 201.861141 116.740917 
L 202.152113 165.998759 
L 202.474262 162.920144 
L 202.786019 190.62768 
L 203.108167 165.998759 
L 203.419924 159.841529 
L 203.742072 161.380836 
L 204.064221 182.931142 
L 204.375978 159.841529 
L 204.698126 165.998759 
L 205.009883 189.088372 
L 205.332032 193.706295 
L 205.65418 158.302221 
L 205.955545 182.931142 
L 206.277693 176.773912 
L 206.58945 189.088372 
L 206.911599 193.706295 
L 207.545504 159.841529 
L 207.867652 193.706295 
L 208.179409 204.481448 
L 208.501558 170.616682 
L 208.813314 172.155989 
L 209.135463 184.47045 
L 209.457612 178.313219 
L 209.748584 155.223606 
L 210.070733 176.773912 
L 210.38249 175.234604 
L 210.704638 150.605683 
L 211.016395 181.391834 
L 211.338543 169.077374 
L 211.660692 149.066376 
L 211.972449 136.751916 
L 212.294597 133.6733 
L 212.606354 142.909146 
L 212.928503 141.369838 
L 213.250651 96.729919 
L 213.541624 138.291223 
L 213.863773 136.751916 
L 214.497678 115.20161 
L 214.809435 125.976763 
L 215.131583 130.594685 
L 215.453732 165.998759 
L 215.765488 162.920144 
L 216.087637 158.302221 
L 216.399394 149.066376 
L 216.721542 161.380836 
L 217.043691 133.6733 
L 217.334664 182.931142 
L 217.656812 182.931142 
L 217.968569 184.47045 
L 218.602474 172.155989 
L 218.924623 182.931142 
L 219.246771 169.077374 
L 219.558528 169.077374 
L 219.880676 170.616682 
L 220.192433 164.459451 
L 220.514582 195.245602 
L 220.83673 145.987761 
L 221.138095 142.909146 
L 221.460244 144.448453 
L 221.772 173.695297 
L 222.094149 167.538067 
L 222.405906 170.616682 
L 222.728054 169.077374 
L 223.050203 170.616682 
L 223.361959 189.088372 
L 223.684108 182.931142 
L 223.995865 189.088372 
L 224.318013 167.538067 
L 224.640162 164.459451 
L 224.931135 145.987761 
L 225.253283 155.223606 
L 225.56504 144.448453 
L 225.887188 150.605683 
L 226.198945 141.369838 
L 226.521094 159.841529 
L 226.843242 149.066376 
L 227.154999 155.223606 
L 227.477147 127.51607 
L 227.788904 150.605683 
L 228.111053 119.819532 
L 228.433201 118.280225 
L 228.724174 95.190612 
L 229.046323 145.987761 
L 229.358079 135.212608 
L 229.680228 152.144991 
L 229.991985 139.830531 
L 230.314133 150.605683 
L 230.636282 135.212608 
L 230.948039 147.527068 
L 231.270187 144.448453 
L 231.581944 169.077374 
L 231.904092 122.898148 
L 232.226241 150.605683 
L 232.517214 147.527068 
L 232.839362 150.605683 
L 233.151119 139.830531 
L 233.473268 159.841529 
L 233.785024 150.605683 
L 234.107173 133.6733 
L 234.429321 133.6733 
L 234.741078 119.819532 
L 235.063227 150.605683 
L 235.374983 119.819532 
L 235.697132 144.448453 
L 236.01928 125.976763 
L 236.320645 136.751916 
L 236.642794 139.830531 
L 236.95455 170.616682 
L 237.276699 169.077374 
L 237.588456 195.245602 
L 237.910604 165.998759 
L 238.232753 153.684299 
L 238.54451 133.6733 
L 238.866658 124.437455 
L 239.178415 155.223606 
L 239.500563 124.437455 
L 239.822712 145.987761 
L 240.113685 129.055378 
L 240.435833 129.055378 
L 240.74759 135.212608 
L 241.069739 132.133993 
L 241.381495 133.6733 
L 241.703644 138.291223 
L 242.025792 115.20161 
L 242.337549 112.122995 
L 242.659698 118.280225 
L 243.293603 147.527068 
L 243.615751 127.51607 
L 243.906724 138.291223 
L 244.228873 158.302221 
L 244.54063 162.920144 
L 244.862778 136.751916 
L 245.174535 152.144991 
L 245.496683 124.437455 
L 245.818832 136.751916 
L 246.130589 129.055378 
L 246.452737 124.437455 
L 246.764494 116.740917 
L 247.086642 87.494074 
L 247.408791 127.51607 
L 247.699764 127.51607 
L 248.021913 118.280225 
L 248.655818 145.987761 
L 248.967574 139.830531 
L 249.289723 142.909146 
L 249.611872 136.751916 
L 250.245777 147.527068 
L 250.557534 158.302221 
L 250.879682 198.324218 
L 251.201831 179.852527 
L 251.503195 122.898148 
L 251.825344 153.684299 
L 252.137101 156.762914 
L 252.459249 161.380836 
L 252.771006 142.909146 
L 253.093154 167.538067 
L 253.415303 135.212608 
L 253.72706 132.133993 
L 254.049208 133.6733 
L 254.360965 152.144991 
L 254.683114 139.830531 
L 255.005262 153.684299 
L 255.296235 153.684299 
L 255.618384 141.369838 
L 255.93014 135.212608 
L 256.252289 135.212608 
L 256.564045 124.437455 
L 256.886194 133.6733 
L 257.208343 127.51607 
L 257.520099 136.751916 
L 257.842248 116.740917 
L 258.154005 135.212608 
L 258.476153 122.898148 
L 258.798302 115.20161 
L 259.089275 93.651304 
L 259.411423 101.347842 
L 260.045328 136.751916 
L 260.357085 139.830531 
L 260.679234 135.212608 
L 261.001382 141.369838 
L 261.635287 113.662302 
L 261.947044 159.841529 
L 262.591341 153.684299 
L 262.882314 136.751916 
L 263.204463 135.212608 
L 263.516219 153.684299 
L 263.838368 144.448453 
L 264.150125 122.898148 
L 264.472273 122.898148 
L 264.794422 149.066376 
L 265.106178 133.6733 
L 265.428327 149.066376 
L 265.740084 152.144991 
L 266.062232 164.459451 
L 266.384381 159.841529 
L 267.319651 118.280225 
L 267.641799 139.830531 
L 267.953556 147.527068 
L 268.275705 138.291223 
L 268.597853 118.280225 
L 268.90961 115.20161 
L 269.231758 119.819532 
L 269.543515 153.684299 
L 269.865664 130.594685 
L 270.187812 150.605683 
L 270.478785 133.6733 
L 270.800934 155.223606 
L 271.11269 141.369838 
L 271.434839 135.212608 
L 271.746596 144.448453 
L 272.068744 133.6733 
L 272.390893 115.20161 
L 272.702649 129.055378 
L 273.024798 110.583687 
L 273.336555 132.133993 
L 273.658703 122.898148 
L 273.980852 156.762914 
L 274.271825 116.740917 
L 274.593973 115.20161 
L 274.90573 101.347842 
L 275.227879 133.6733 
L 275.539635 147.527068 
L 275.861784 109.04438 
L 276.183932 96.729919 
L 276.495689 104.426457 
L 276.817838 132.133993 
L 277.129594 113.662302 
L 277.451743 110.583687 
L 278.064864 96.729919 
L 278.387013 121.35884 
L 278.69877 115.20161 
L 279.020918 115.20161 
L 279.332675 125.976763 
L 279.654823 115.20161 
L 279.976972 110.583687 
L 280.288729 72.100998 
L 280.610877 75.179614 
L 281.244782 55.168615 
L 281.566931 27.46108 
L 281.868296 35.157617 
L 282.502201 92.111997 
L 282.82435 118.280225 
L 283.136106 107.505072 
L 283.458255 84.415459 
L 283.780403 101.347842 
L 284.09216 98.269227 
L 284.414309 92.111997 
L 284.726065 110.583687 
L 284.726065 110.583687 
" style="fill:none;stroke:#ff0000;stroke-linecap:square;stroke-width:1.5;"/>
   </g>
   <g id="patch_7">
    <path d="M 50.565625 303.84375 
L 50.565625 14.3 
" style="fill:none;stroke:#000000;stroke-linecap:square;stroke-linejoin:miter;stroke-width:0.8;"/>
   </g>
   <g id="patch_8">
    <path d="M 295.876562 303.84375 
L 295.876562 14.3 
" style="fill:none;stroke:#000000;stroke-linecap:square;stroke-linejoin:miter;stroke-width:0.8;"/>
   </g>
   <g id="patch_9">
    <path d="M 50.565625 303.84375 
L 295.876563 303.84375 
" style="fill:none;stroke:#000000;stroke-linecap:square;stroke-linejoin:miter;stroke-width:0.8;"/>
   </g>
   <g id="patch_10">
    <path d="M 50.565625 14.3 
L 295.876563 14.3 
" style="fill:none;stroke:#000000;stroke-linecap:square;stroke-linejoin:miter;stroke-width:0.8;"/>
   </g>
   <g id="patch_11">
    <path d="M 280.317765 254.454567 
Q 280.303414 168.895538 280.289252 84.454544 
" style="fill:none;stroke:#808080;stroke-linecap:round;"/>
    <path d="M 278.289922 88.454879 
L 280.289252 84.454544 
L 282.289922 88.454208 
" style="fill:none;stroke:#808080;stroke-linecap:round;"/>
   </g>
   <g id="text_22">
    <!-- &gt;1 degree -->
    <defs>
     <path d="M 10.59375 49.21875 
L 10.59375 58.109375 
L 73.1875 35.40625 
L 73.1875 27.296875 
L 10.59375 4.59375 
L 10.59375 13.484375 
L 60.890625 31.296875 
z
" id="DejaVuSans-3e"/>
     <path d="M 45.40625 46.390625 
L 45.40625 75.984375 
L 54.390625 75.984375 
L 54.390625 0 
L 45.40625 0 
L 45.40625 8.203125 
Q 42.578125 3.328125 38.25 0.953125 
Q 33.9375 -1.421875 27.875 -1.421875 
Q 17.96875 -1.421875 11.734375 6.484375 
Q 5.515625 14.40625 5.515625 27.296875 
Q 5.515625 40.1875 11.734375 48.09375 
Q 17.96875 56 27.875 56 
Q 33.9375 56 38.25 53.625 
Q 42.578125 51.265625 45.40625 46.390625 
z
M 14.796875 27.296875 
Q 14.796875 17.390625 18.875 11.75 
Q 22.953125 6.109375 30.078125 6.109375 
Q 37.203125 6.109375 41.296875 11.75 
Q 45.40625 17.390625 45.40625 27.296875 
Q 45.40625 37.203125 41.296875 42.84375 
Q 37.203125 48.484375 30.078125 48.484375 
Q 22.953125 48.484375 18.875 42.84375 
Q 14.796875 37.203125 14.796875 27.296875 
z
" id="DejaVuSans-64"/>
     <path d="M 45.40625 27.984375 
Q 45.40625 37.75 41.375 43.109375 
Q 37.359375 48.484375 30.078125 48.484375 
Q 22.859375 48.484375 18.828125 43.109375 
Q 14.796875 37.75 14.796875 27.984375 
Q 14.796875 18.265625 18.828125 12.890625 
Q 22.859375 7.515625 30.078125 7.515625 
Q 37.359375 7.515625 41.375 12.890625 
Q 45.40625 18.265625 45.40625 27.984375 
z
M 54.390625 6.78125 
Q 54.390625 -7.171875 48.1875 -13.984375 
Q 42 -20.796875 29.203125 -20.796875 
Q 24.46875 -20.796875 20.265625 -20.09375 
Q 16.0625 -19.390625 12.109375 -17.921875 
L 12.109375 -9.1875 
Q 16.0625 -11.328125 19.921875 -12.34375 
Q 23.78125 -13.375 27.78125 -13.375 
Q 36.625 -13.375 41.015625 -8.765625 
Q 45.40625 -4.15625 45.40625 5.171875 
L 45.40625 9.625 
Q 42.625 4.78125 38.28125 2.390625 
Q 33.9375 0 27.875 0 
Q 17.828125 0 11.671875 7.65625 
Q 5.515625 15.328125 5.515625 27.984375 
Q 5.515625 40.671875 11.671875 48.328125 
Q 17.828125 56 27.875 56 
Q 33.9375 56 38.28125 53.609375 
Q 42.625 51.21875 45.40625 46.390625 
L 45.40625 54.6875 
L 54.390625 54.6875 
z
" id="DejaVuSans-67"/>
    </defs>
    <g transform="translate(253.72706 266.05375)scale(0.1 -0.1)">
     <use xlink:href="#DejaVuSans-3e"/>
     <use x="83.789062" xlink:href="#DejaVuSans-31"/>
     <use x="147.412109" xlink:href="#DejaVuSans-20"/>
     <use x="179.199219" xlink:href="#DejaVuSans-64"/>
     <use x="242.675781" xlink:href="#DejaVuSans-65"/>
     <use x="304.199219" xlink:href="#DejaVuSans-67"/>
     <use x="367.675781" xlink:href="#DejaVuSans-72"/>
     <use x="408.757812" xlink:href="#DejaVuSans-65"/>
     <use x="470.28125" xlink:href="#DejaVuSans-65"/>
    </g>
   </g>
  </g>
 </g>
 <defs>
  <clipPath id="p9a5878f395">
   <rect height="289.54375" width="245.310937" x="50.565625" y="14.3"/>
  </clipPath>
 </defs>
</svg>
